<svg xmlns="http://www.w3.org/2000/svg" width="1800" height="1180" viewBox="0 0 1800 1180" role="img" aria-labelledby="title desc">
  <title id="title">Sabai Stay Class Diagram</title>
  <desc id="desc">Ultra-simple academic UML class diagram for Sabai Stay showing the main user roles and core business classes.</desc>
  <defs>
    <style>
      .bg { fill: #f8fafc; }
      .title { font: 700 32px 'Segoe UI', Arial, sans-serif; fill: #0f172a; }
      .subtitle { font: 400 16px 'Segoe UI', Arial, sans-serif; fill: #475569; }
      .uml { fill: #ffffff; stroke: #64748b; stroke-width: 1.8; rx: 12; ry: 12; }
      .name-band { fill: #ffffff; }
      .cls { font: 700 17px 'Segoe UI', Arial, sans-serif; fill: #0f172a; }
      .attr { font: 12px 'Consolas', 'Courier New', monospace; fill: #334155; }
      .assoc { fill: none; stroke: #475569; stroke-width: 2; stroke-linecap: round; stroke-linejoin: round; }
      .relation { fill: none; stroke: #475569; stroke-width: 2; stroke-linecap: round; stroke-linejoin: round; marker-end: url(#arrow); }
      .generalize { fill: none; stroke: #475569; stroke-width: 2; stroke-linecap: round; stroke-linejoin: round; marker-end: url(#triangle); }
      .multi { font: 700 12px 'Consolas', 'Courier New', monospace; fill: #2563eb; }
      .label { font: 12px 'Segoe UI', Arial, sans-serif; fill: #1e293b; }
      .note { fill: #ffffff; stroke: #cbd5e1; stroke-width: 1.4; rx: 18; ry: 18; }
      .note-text { font: 13px 'Segoe UI', Arial, sans-serif; fill: #334155; }
    </style>
    <marker id="arrow" markerWidth="12" markerHeight="12" refX="10" refY="5" orient="auto">
      <path d="M0,0 L10,5 L0,10 Z" fill="#475569" />
    </marker>
    <marker id="triangle" markerWidth="14" markerHeight="14" refX="10" refY="5" orient="auto">
      <path d="M0,5 L10,0 L10,10 Z" fill="#ffffff" stroke="#475569" stroke-width="1.4" />
    </marker>
  </defs>

  <rect class="bg" x="0" y="0" width="1800" height="1180" />
  <text class="title" x="40" y="56">Sabai Stay Class Diagram</text>
  <text class="subtitle" x="40" y="86">Ultra-simple academic UML view of the main roles and core business classes.</text>

  <g transform="translate(760 120)">
    <rect class="uml" width="280" height="132" />
    <line class="assoc" x1="0" y1="42" x2="280" y2="42" />
    <text class="cls" x="20" y="28">User</text>
    <text class="attr" x="20" y="70">- userId : String</text>
    <text class="attr" x="20" y="92">- fullName : String</text>
    <text class="attr" x="20" y="114">- role : UserRole</text>
  </g>

  <g transform="translate(420 330)">
    <rect class="uml" width="260" height="132" />
    <line class="assoc" x1="0" y1="42" x2="260" y2="42" />
    <text class="cls" x="20" y="28">Student</text>
    <text class="attr" x="20" y="70">- studentId : String</text>
    <text class="attr" x="20" y="92">- verificationStatus : String</text>
    <text class="attr" x="20" y="114">- universityId : String</text>
  </g>

  <g transform="translate(1120 330)">
    <rect class="uml" width="260" height="132" />
    <line class="assoc" x1="0" y1="42" x2="260" y2="42" />
    <text class="cls" x="20" y="28">Owner</text>
    <text class="attr" x="20" y="70">- ownerId : String</text>
    <text class="attr" x="20" y="92">- businessName : String</text>
    <text class="attr" x="20" y="114">- verificationStatus : String</text>
  </g>

  <g transform="translate(220 620)">
    <rect class="uml" width="320" height="154" />
    <line class="assoc" x1="0" y1="42" x2="320" y2="42" />
    <text class="cls" x="20" y="28">RoommateProfile</text>
    <text class="attr" x="20" y="70">- profileId : String</text>
    <text class="attr" x="20" y="92">- studyHabit : String</text>
    <text class="attr" x="20" y="114">- budgetMin : Number</text>
    <text class="attr" x="20" y="136">- budgetMax : Number</text>
  </g>

  <g transform="translate(740 620)">
    <rect class="uml" width="320" height="176" />
    <line class="assoc" x1="0" y1="42" x2="320" y2="42" />
    <text class="cls" x="20" y="28">Booking</text>
    <text class="attr" x="20" y="70">- bookingId : String</text>
    <text class="attr" x="20" y="92">- checkIn : Date</text>
    <text class="attr" x="20" y="114">- checkOut : Date</text>
    <text class="attr" x="20" y="136">- status : BookingStatus</text>
    <text class="attr" x="20" y="158">- totalPrice : Number</text>
  </g>

  <g transform="translate(1260 620)">
    <rect class="uml" width="320" height="154" />
    <line class="assoc" x1="0" y1="42" x2="320" y2="42" />
    <text class="cls" x="20" y="28">Listing</text>
    <text class="attr" x="20" y="70">- listingId : String</text>
    <text class="attr" x="20" y="92">- title : String</text>
    <text class="attr" x="20" y="114">- price : Number</text>
    <text class="attr" x="20" y="136">- roomType : String</text>
  </g>

  <g transform="translate(740 920)">
    <rect class="uml" width="320" height="132" />
    <line class="assoc" x1="0" y1="42" x2="320" y2="42" />
    <text class="cls" x="20" y="28">Contract</text>
    <text class="attr" x="20" y="70">- contractId : String</text>
    <text class="attr" x="20" y="92">- status : ContractStatus</text>
    <text class="attr" x="20" y="114">- startDate / endDate : Date</text>
  </g>

  <path class="assoc" d="M550 330 V290" />
  <path class="assoc" d="M1250 330 V290" />
  <path class="assoc" d="M550 290 H1250" />
  <path class="generalize" d="M900 290 V252" />
  <text class="label" x="930" y="278">inherits from</text>

  <path class="relation" d="M550 462 V560 H380 V620" />
  <text class="multi" x="562" y="520">1</text>
  <text class="multi" x="392" y="608">0..1</text>
  <text class="label" x="452" y="548">owns</text>

  <path class="relation" d="M680 396 H900 V620" />
  <text class="multi" x="694" y="386">1</text>
  <text class="multi" x="912" y="608">0..*</text>
  <text class="label" x="760" y="516">submits</text>

  <path class="relation" d="M1220 462 V560 H1420 V620" />
  <text class="multi" x="1232" y="520">1</text>
  <text class="multi" x="1432" y="608">0..*</text>
  <text class="label" x="1290" y="548">manages</text>

  <path class="relation" d="M1060 700 H1260" />
  <text class="multi" x="1072" y="690">0..*</text>
  <text class="multi" x="1242" y="690">1</text>
  <text class="label" x="1128" y="726">targets listing</text>

  <path class="relation" d="M900 796 V920" />
  <text class="multi" x="912" y="842">1</text>
  <text class="multi" x="912" y="908">0..1</text>
  <text class="label" x="926" y="878">creates contract</text>

  <rect class="note" x="40" y="1090" width="1720" height="72" />
  <text class="note-text" x="66" y="1120">This academic UML diagram intentionally simplifies the implementation by modeling Student and Owner as role specializations of User. It focuses only on the core business classes needed to explain the platform clearly.</text>
  <text class="note-text" x="66" y="1144">Suggested caption: "Simplified UML class diagram of Sabai Stay showing users, listings, bookings, contracts, and roommate profiles."</text>
</svg>

