<svg xmlns="http://www.w3.org/2000/svg" width="1700" height="1100" viewBox="0 0 1700 1100" role="img" aria-labelledby="title desc">
  <title id="title">Sabai Stay Use Case Diagram</title>
  <desc id="desc">Use case diagram showing the main Sabai Stay actors and the system capabilities available to public visitors, students, owners, and administrators.</desc>
  <defs>
    <style>
      .bg { fill: #f8fafc; }
      .system { fill: #ffffff; stroke: #94a3b8; stroke-width: 2; rx: 28; ry: 28; }
      .title { font: 700 32px 'Segoe UI', Arial, sans-serif; fill: #0f172a; }
      .subtitle { font: 400 16px 'Segoe UI', Arial, sans-serif; fill: #475569; }
      .actor-name { font: 700 18px 'Segoe UI', Arial, sans-serif; fill: #0f172a; }
      .actor-note { font: 12px 'Segoe UI', Arial, sans-serif; fill: #475569; }
      .uc { fill: #ffffff; stroke: #64748b; stroke-width: 1.8; }
      .uc-text { font: 700 14px 'Segoe UI', Arial, sans-serif; fill: #0f172a; text-anchor: middle; }
      .system-label { font: 700 24px 'Segoe UI', Arial, sans-serif; fill: #2563eb; }
      .line { fill: none; stroke: #475569; stroke-width: 1.8; stroke-linecap: round; stroke-linejoin: round; marker-end: url(#arrow); }
      .stick { fill: none; stroke: #0f172a; stroke-width: 2.2; stroke-linecap: round; stroke-linejoin: round; }
      .note { fill: #ffffff; stroke: #cbd5e1; stroke-width: 1.4; rx: 18; ry: 18; }
      .note-text { font: 13px 'Segoe UI', Arial, sans-serif; fill: #334155; }
    </style>
    <marker id="arrow" markerWidth="10" markerHeight="10" refX="8" refY="3" orient="auto">
      <path d="M0,0 L8,3 L0,6 Z" fill="#475569" />
    </marker>
  </defs>

  <rect class="bg" x="0" y="0" width="1700" height="1100" />
  <text class="title" x="40" y="56">Sabai Stay Use Case Diagram</text>
  <text class="subtitle" x="40" y="86">Main platform interactions grouped by role and aligned with the implemented routes and screens.</text>

  <rect class="system" x="300" y="120" width="1100" height="830" />
  <text class="system-label" x="340" y="164">Sabai Stay Platform</text>

  <g transform="translate(70 220)">
    <circle class="stick" cx="40" cy="26" r="18" />
    <line class="stick" x1="40" y1="44" x2="40" y2="102" />
    <line class="stick" x1="10" y1="62" x2="70" y2="62" />
    <line class="stick" x1="40" y1="102" x2="16" y2="136" />
    <line class="stick" x1="40" y1="102" x2="64" y2="136" />
    <text class="actor-name" x="0" y="170">Public Visitor</text>
    <text class="actor-note" x="0" y="192">Anonymous housing explorer</text>
  </g>

  <g transform="translate(70 570)">
    <circle class="stick" cx="40" cy="26" r="18" />
    <line class="stick" x1="40" y1="44" x2="40" y2="102" />
    <line class="stick" x1="10" y1="62" x2="70" y2="62" />
    <line class="stick" x1="40" y1="102" x2="16" y2="136" />
    <line class="stick" x1="40" y1="102" x2="64" y2="136" />
    <text class="actor-name" x="10" y="170">Student</text>
    <text class="actor-note" x="-8" y="192">Authenticated renter</text>
  </g>

  <g transform="translate(1490 320)">
    <circle class="stick" cx="40" cy="26" r="18" />
    <line class="stick" x1="40" y1="44" x2="40" y2="102" />
    <line class="stick" x1="10" y1="62" x2="70" y2="62" />
    <line class="stick" x1="40" y1="102" x2="16" y2="136" />
    <line class="stick" x1="40" y1="102" x2="64" y2="136" />
    <text class="actor-name" x="12" y="170">Owner</text>
    <text class="actor-note" x="-6" y="192">Landlord or property manager</text>
  </g>

  <g transform="translate(1490 690)">
    <circle class="stick" cx="40" cy="26" r="18" />
    <line class="stick" x1="40" y1="44" x2="40" y2="102" />
    <line class="stick" x1="10" y1="62" x2="70" y2="62" />
    <line class="stick" x1="40" y1="102" x2="16" y2="136" />
    <line class="stick" x1="40" y1="102" x2="64" y2="136" />
    <text class="actor-name" x="16" y="170">Admin</text>
    <text class="actor-note" x="-10" y="192">Platform operator</text>
  </g>

  <ellipse class="uc" cx="540" cy="260" rx="150" ry="44" />
  <text class="uc-text" x="540" y="257">Browse Listings and Map</text>
  <text class="uc-text" x="540" y="275">Discovery</text>

  <ellipse class="uc" cx="540" cy="390" rx="150" ry="44" />
  <text class="uc-text" x="540" y="387">Filter by Campus Zone,</text>
  <text class="uc-text" x="540" y="405">Price, Room Type</text>

  <ellipse class="uc" cx="540" cy="520" rx="150" ry="44" />
  <text class="uc-text" x="540" y="517">View Listing Details and</text>
  <text class="uc-text" x="540" y="535">Utility Estimate</text>

  <ellipse class="uc" cx="540" cy="650" rx="150" ry="44" />
  <text class="uc-text" x="540" y="647">Sign Up and Sign In</text>

  <ellipse class="uc" cx="870" cy="250" rx="150" ry="44" />
  <text class="uc-text" x="870" y="247">Submit Booking</text>
  <text class="uc-text" x="870" y="265">Request</text>

  <ellipse class="uc" cx="870" cy="380" rx="150" ry="44" />
  <text class="uc-text" x="870" y="377">Track Booking and</text>
  <text class="uc-text" x="870" y="395">Contract Status</text>

  <ellipse class="uc" cx="870" cy="510" rx="150" ry="44" />
  <text class="uc-text" x="870" y="507">Create Review and</text>
  <text class="uc-text" x="870" y="525">Read Responses</text>

  <ellipse class="uc" cx="870" cy="640" rx="150" ry="44" />
  <text class="uc-text" x="870" y="637">Manage Roommate</text>
  <text class="uc-text" x="870" y="655">Profile and Matches</text>

  <ellipse class="uc" cx="1175" cy="260" rx="150" ry="44" />
  <text class="uc-text" x="1175" y="257">Create and Update</text>
  <text class="uc-text" x="1175" y="275">Listings</text>

  <ellipse class="uc" cx="1175" cy="390" rx="150" ry="44" />
  <text class="uc-text" x="1175" y="387">Approve, Reject, or</text>
  <text class="uc-text" x="1175" y="405">Confirm Bookings</text>

  <ellipse class="uc" cx="1175" cy="520" rx="150" ry="44" />
  <text class="uc-text" x="1175" y="517">Respond to Reviews</text>

  <ellipse class="uc" cx="1175" cy="650" rx="150" ry="44" />
  <text class="uc-text" x="1175" y="647">Monitor Analytics and</text>
  <text class="uc-text" x="1175" y="665">Notifications</text>

  <ellipse class="uc" cx="1175" cy="780" rx="150" ry="44" />
  <text class="uc-text" x="1175" y="777">Process Verification</text>
  <text class="uc-text" x="1175" y="795">and Disputes</text>

  <line class="line" x1="150" y1="270" x2="390" y2="260" />
  <line class="line" x1="150" y1="284" x2="390" y2="390" />
  <line class="line" x1="150" y1="298" x2="390" y2="520" />
  <line class="line" x1="150" y1="312" x2="390" y2="650" />

  <line class="line" x1="150" y1="630" x2="720" y2="250" />
  <line class="line" x1="150" y1="648" x2="720" y2="380" />
  <line class="line" x1="150" y1="666" x2="720" y2="510" />
  <line class="line" x1="150" y1="684" x2="720" y2="640" />
  <line class="line" x1="150" y1="614" x2="390" y2="650" />

  <line class="line" x1="1490" y1="380" x2="1325" y2="260" />
  <line class="line" x1="1490" y1="398" x2="1325" y2="390" />
  <line class="line" x1="1490" y1="416" x2="1325" y2="520" />
  <line class="line" x1="1490" y1="434" x2="1325" y2="650" />

  <line class="line" x1="1490" y1="750" x2="1325" y2="780" />
  <line class="line" x1="1490" y1="732" x2="1020" y2="640" />
  <line class="line" x1="1490" y1="714" x2="1325" y2="390" />

  <rect class="note" x="300" y="980" width="1100" height="84" />
  <text class="note-text" x="330" y="1012">This diagram is intentionally role-based rather than route-based. The public visitor covers discovery features, the student covers booking and roommate workflows, the owner covers listing and booking management, and the admin covers governance workflows.</text>
  <text class="note-text" x="330" y="1038">Suggested caption: "Use case diagram of Sabai Stay showing interactions among public visitors, students, owners, and administrators."</text>
</svg>

